<svg width="26" height="29" viewBox="0 0 26 29" fill="none" xmlns="http://www.w3.org/2000/svg">
<path d="M13.25 28.5C11.2812 28.5 9.75 26.9688 9.75 25H16.6953C16.6953 26.9688 15.1641 28.5 13.25 28.5ZM25.0078 20.3516C25.3359 20.6797 25.5 21.1172 25.5 21.5C25.4453 22.4297 24.7891 23.25 23.6953 23.25H2.75C1.65625 23.25 1 22.4297 1 21.5C0.945312 21.1172 1.10938 20.6797 1.4375 20.3516C2.47656 19.2031 4.5 17.5078 4.5 11.875C4.5 7.66406 7.45312 4.27344 11.5 3.39844V2.25C11.5 1.32031 12.2656 0.5 13.25 0.5C14.1797 0.5 14.9453 1.32031 14.9453 2.25V3.39844C18.9922 4.27344 21.9453 7.66406 21.9453 11.875C21.9453 17.5078 23.9688 19.2031 25.0078 20.3516Z" fill="black"/>
</svg>
