<svg width="35" height="35" viewBox="0 0 35 35" fill="none" xmlns="http://www.w3.org/2000/svg">
<circle cx="17.5" cy="17.5" r="17.5" fill="#CDD0D3"/>
<path d="M20.4531 18.5L24.3594 22.4453C24.8672 22.9141 24.8672 23.6953 24.3594 24.1641L23.5 25.0234C23.0312 25.5312 22.25 25.5312 21.7812 25.0234L17.875 21.1172L13.9297 25.0234C13.4609 25.5312 12.6797 25.5312 12.2109 25.0234L11.3516 24.1641C10.8438 23.6953 10.8438 22.9141 11.3516 22.4453L15.2578 18.5L11.3516 14.5938C10.8438 14.125 10.8438 13.3438 11.3516 12.875L12.2109 12.0156C12.6797 11.5078 13.4609 11.5078 13.9297 12.0156L17.875 15.9219L21.7812 12.0156C22.25 11.5078 23.0312 11.5078 23.5 12.0156L24.3594 12.875C24.8672 13.3438 24.8672 14.125 24.3594 14.5938L20.4531 18.5Z" fill="black"/>
</svg>
