<svg width="31" height="31" viewBox="0 0 31 31" fill="none" xmlns="http://www.w3.org/2000/svg">
<circle cx="15.5" cy="15.5" r="15.5" fill="#D73B3B"/>
<path d="M20.9688 9.4375C21.1719 9.4375 21.375 9.64062 21.375 9.84375V10.6562C21.375 10.8848 21.1719 11.0625 20.9688 11.0625H10.4062C10.1777 11.0625 10 10.8848 10 10.6562V9.84375C10 9.64062 10.1777 9.4375 10.4062 9.4375H13.4531L13.6816 8.98047C13.7832 8.77734 13.9863 8.625 14.2148 8.625H17.1348C17.3633 8.625 17.5664 8.77734 17.668 8.98047L17.9219 9.4375H20.9688ZM11.3457 20.4824L10.8125 11.875H20.5625L20.0039 20.4824C19.9785 21.1426 19.4453 21.625 18.7852 21.625H12.5645C11.9043 21.625 11.3711 21.1426 11.3457 20.4824Z" fill="white"/>
</svg>
