<svg width="28" height="29" viewBox="0 0 28 29" fill="none" xmlns="http://www.w3.org/2000/svg">
<path d="M26.6328 17.7812C26.9062 17.9453 27.0156 18.2734 26.9609 18.5469C26.3047 20.5156 25.3203 22.2656 23.9531 23.7422C23.7344 23.9609 23.4062 24.0156 23.1328 23.8516L20.7812 22.5391C19.7969 23.3594 18.7031 24.0156 17.5 24.4531V27.1328C17.5 27.4062 17.2812 27.6797 16.9531 27.7891C15.0391 28.1719 13.0156 28.2266 10.9922 27.7891C10.7188 27.6797 10.5 27.4062 10.5 27.1328V24.4531C9.24219 24.0156 8.14844 23.3594 7.16406 22.5391L4.8125 23.8516C4.53906 24.0156 4.21094 23.9609 3.99219 23.7422C2.67969 22.2656 1.64062 20.5156 1.03906 18.5469C0.929688 18.2734 1.03906 17.9453 1.3125 17.7812L3.66406 16.4688C3.44531 15.1562 3.44531 13.8984 3.66406 12.5859L1.3125 11.2734C1.03906 11.1094 0.929688 10.7812 1.03906 10.5078C1.64062 8.53906 2.67969 6.78906 3.99219 5.3125C4.21094 5.09375 4.53906 5.03906 4.8125 5.20312L7.16406 6.57031C8.14844 5.69531 9.24219 5.03906 10.5 4.60156V1.92188C10.5 1.64844 10.6641 1.375 10.9922 1.32031C12.9062 0.882812 14.9297 0.828125 16.9531 1.32031C17.2812 1.375 17.5 1.64844 17.5 1.92188V4.60156C18.7031 5.03906 19.7969 5.69531 20.7812 6.51562L23.1328 5.20312C23.4062 5.03906 23.7344 5.09375 23.9531 5.3125C25.2656 6.78906 26.3047 8.53906 26.9062 10.5078C27.0156 10.7812 26.9062 11.1094 26.6328 11.2734L24.2812 12.5859C24.5547 13.8984 24.5547 15.1562 24.2812 16.4688L26.6328 17.7812ZM14 18.875C16.4062 18.875 18.375 16.9609 18.375 14.5C18.375 12.0938 16.4062 10.125 14 10.125C11.5391 10.125 9.625 12.0938 9.625 14.5C9.625 16.9609 11.5391 18.875 14 18.875Z" fill="black"/>
</svg>
