<svg width="35" height="35" viewBox="0 0 35 35" fill="none" xmlns="http://www.w3.org/2000/svg">
<circle cx="17.5" cy="17.5" r="17.5" fill="#CDD0D3"/>
<path d="M17.75 16.5C14.9766 16.5 12.75 14.2734 12.75 11.5C12.75 8.76562 14.9766 6.5 17.75 6.5C20.4844 6.5 22.75 8.76562 22.75 11.5C22.75 14.2734 20.4844 16.5 17.75 16.5ZM21.2266 17.75C24.1172 17.75 26.5 20.1328 26.5 23.0234V24.625C26.5 25.6797 25.6406 26.5 24.625 26.5H10.875C9.82031 26.5 9 25.6797 9 24.625V23.0234C9 20.1328 11.3438 17.75 14.2344 17.75H14.8984C15.7578 18.1797 16.7344 18.375 17.75 18.375C18.7656 18.375 19.7031 18.1797 20.5625 17.75H21.2266Z" fill="black"/>
</svg>
